<mxfile host="app.diagrams.net" modified="2024-01-31T19:46:48.995Z" agent="Mozilla/5.0 (Windows NT 10.0; Win64; x64) AppleWebKit/537.36 (KHTML, like Gecko) Chrome/120.0.0.0 Safari/537.36" etag="m-_JUBtb81cEKgW7fxfo" version="23.1.1" type="google">
  <diagram name="default_value" id="boZ27yTkVJQ9ecHUJxUO">
    <mxGraphModel grid="1" page="1" gridSize="10" guides="1" tooltips="1" connect="1" arrows="1" fold="1" pageScale="1" pageWidth="850" pageHeight="1100" math="0" shadow="0">
      <root>
        <mxCell id="0" />
        <mxCell id="1" parent="0" />
        <mxCell id="_RSpMfg2K95tXH5mqV2U-3" value="" style="edgeStyle=orthogonalEdgeStyle;rounded=0;orthogonalLoop=1;jettySize=auto;html=1;" edge="1" parent="1" source="JRdJJvKPd-5Q0LVfvCK3-1" target="_RSpMfg2K95tXH5mqV2U-1">
          <mxGeometry relative="1" as="geometry" />
        </mxCell>
        <mxCell id="_RSpMfg2K95tXH5mqV2U-32" style="edgeStyle=orthogonalEdgeStyle;rounded=0;orthogonalLoop=1;jettySize=auto;html=1;exitX=0.5;exitY=1;exitDx=0;exitDy=0;exitPerimeter=0;entryX=0;entryY=0.5;entryDx=0;entryDy=0;" edge="1" parent="1" source="JRdJJvKPd-5Q0LVfvCK3-1" target="_RSpMfg2K95tXH5mqV2U-30">
          <mxGeometry relative="1" as="geometry" />
        </mxCell>
        <mxCell id="JRdJJvKPd-5Q0LVfvCK3-1" value="DB" style="shape=cylinder3;whiteSpace=wrap;html=1;boundedLbl=1;backgroundOutline=1;size=15;" vertex="1" parent="1">
          <mxGeometry x="40" y="200" width="60" height="80" as="geometry" />
        </mxCell>
        <mxCell id="_RSpMfg2K95tXH5mqV2U-4" value="" style="edgeStyle=orthogonalEdgeStyle;rounded=0;orthogonalLoop=1;jettySize=auto;html=1;" edge="1" parent="1" source="_RSpMfg2K95tXH5mqV2U-1" target="_RSpMfg2K95tXH5mqV2U-2">
          <mxGeometry relative="1" as="geometry" />
        </mxCell>
        <mxCell id="_RSpMfg2K95tXH5mqV2U-1" value="Data Template, nhóm dữ liệu , column field kèm điều kiện, công thức (nếu có)" style="rounded=0;whiteSpace=wrap;html=1;" vertex="1" parent="1">
          <mxGeometry x="290" y="210" width="200" height="60" as="geometry" />
        </mxCell>
        <mxCell id="_RSpMfg2K95tXH5mqV2U-10" value="" style="edgeStyle=orthogonalEdgeStyle;rounded=0;orthogonalLoop=1;jettySize=auto;html=1;" edge="1" parent="1" source="_RSpMfg2K95tXH5mqV2U-2" target="_RSpMfg2K95tXH5mqV2U-9">
          <mxGeometry relative="1" as="geometry" />
        </mxCell>
        <mxCell id="_RSpMfg2K95tXH5mqV2U-2" value="Dùng GrapeCity set Cell&amp;nbsp;defaultValue,..." style="rounded=0;whiteSpace=wrap;html=1;" vertex="1" parent="1">
          <mxGeometry x="290" y="340" width="200" height="60" as="geometry" />
        </mxCell>
        <mxCell id="_RSpMfg2K95tXH5mqV2U-6" value="Đổ data" style="text;html=1;strokeColor=none;fillColor=none;align=center;verticalAlign=middle;whiteSpace=wrap;rounded=0;" vertex="1" parent="1">
          <mxGeometry x="110" y="210" width="60" height="30" as="geometry" />
        </mxCell>
        <mxCell id="_RSpMfg2K95tXH5mqV2U-8" value="Xử lý sắp xếp nhóm dữ liệu" style="text;html=1;strokeColor=none;fillColor=none;align=center;verticalAlign=middle;whiteSpace=wrap;rounded=0;" vertex="1" parent="1">
          <mxGeometry x="410" y="290" width="160" height="30" as="geometry" />
        </mxCell>
        <mxCell id="_RSpMfg2K95tXH5mqV2U-31" value="" style="edgeStyle=orthogonalEdgeStyle;rounded=0;orthogonalLoop=1;jettySize=auto;html=1;" edge="1" parent="1" source="_RSpMfg2K95tXH5mqV2U-9" target="_RSpMfg2K95tXH5mqV2U-30">
          <mxGeometry relative="1" as="geometry">
            <Array as="points">
              <mxPoint x="390" y="560" />
              <mxPoint x="390" y="560" />
            </Array>
          </mxGeometry>
        </mxCell>
        <mxCell id="_RSpMfg2K95tXH5mqV2U-9" value="" style="whiteSpace=wrap;html=1;rounded=0;" vertex="1" parent="1">
          <mxGeometry x="300" y="460" width="180" height="60" as="geometry" />
        </mxCell>
        <mxCell id="_RSpMfg2K95tXH5mqV2U-24" style="edgeStyle=orthogonalEdgeStyle;rounded=0;orthogonalLoop=1;jettySize=auto;html=1;entryX=1;entryY=0.5;entryDx=0;entryDy=0;" edge="1" parent="1" source="_RSpMfg2K95tXH5mqV2U-11" target="_RSpMfg2K95tXH5mqV2U-21">
          <mxGeometry relative="1" as="geometry" />
        </mxCell>
        <mxCell id="_RSpMfg2K95tXH5mqV2U-11" value="Nhập liệu" style="rounded=1;whiteSpace=wrap;html=1;" vertex="1" parent="1">
          <mxGeometry x="680" y="80" width="120" height="60" as="geometry" />
        </mxCell>
        <mxCell id="_RSpMfg2K95tXH5mqV2U-12" value="spread js build template, data option group, field" style="rounded=0;whiteSpace=wrap;html=1;" vertex="1" parent="1">
          <mxGeometry x="150" y="80" width="140" height="60" as="geometry" />
        </mxCell>
        <mxCell id="_RSpMfg2K95tXH5mqV2U-14" value="Add column field" style="text;html=1;strokeColor=none;fillColor=none;align=center;verticalAlign=middle;whiteSpace=wrap;rounded=0;" vertex="1" parent="1">
          <mxGeometry x="525" y="80" width="100" height="30" as="geometry" />
        </mxCell>
        <mxCell id="_RSpMfg2K95tXH5mqV2U-15" value="Điều kiện dữ liệu nhóm" style="text;html=1;strokeColor=none;fillColor=none;align=center;verticalAlign=middle;whiteSpace=wrap;rounded=0;" vertex="1" parent="1">
          <mxGeometry x="520" y="120" width="130" height="30" as="geometry" />
        </mxCell>
        <mxCell id="_RSpMfg2K95tXH5mqV2U-16" style="edgeStyle=orthogonalEdgeStyle;rounded=0;orthogonalLoop=1;jettySize=auto;html=1;entryX=0.5;entryY=0;entryDx=0;entryDy=0;entryPerimeter=0;" edge="1" parent="1" source="_RSpMfg2K95tXH5mqV2U-12" target="JRdJJvKPd-5Q0LVfvCK3-1">
          <mxGeometry relative="1" as="geometry" />
        </mxCell>
        <mxCell id="_RSpMfg2K95tXH5mqV2U-17" value="template view ban đầu là mẫu dev mang đi" style="text;html=1;strokeColor=none;fillColor=none;align=center;verticalAlign=middle;whiteSpace=wrap;rounded=0;" vertex="1" parent="1">
          <mxGeometry x="620" y="40" width="130" height="30" as="geometry" />
        </mxCell>
        <mxCell id="_RSpMfg2K95tXH5mqV2U-18" value="Ghi dữ liệu" style="text;html=1;strokeColor=none;fillColor=none;align=center;verticalAlign=middle;whiteSpace=wrap;rounded=0;" vertex="1" parent="1">
          <mxGeometry x="60" y="80" width="70" height="30" as="geometry" />
        </mxCell>
        <mxCell id="_RSpMfg2K95tXH5mqV2U-25" value="" style="edgeStyle=orthogonalEdgeStyle;rounded=0;orthogonalLoop=1;jettySize=auto;html=1;" edge="1" parent="1" source="_RSpMfg2K95tXH5mqV2U-21" target="_RSpMfg2K95tXH5mqV2U-12">
          <mxGeometry relative="1" as="geometry" />
        </mxCell>
        <mxCell id="_RSpMfg2K95tXH5mqV2U-21" value="Set field dữ liệu&lt;br&gt;Ví dụ : cột H = PCK (Phụ cấp khác)" style="whiteSpace=wrap;html=1;rounded=0;" vertex="1" parent="1">
          <mxGeometry x="340" y="80" width="150" height="60" as="geometry" />
        </mxCell>
        <mxCell id="_RSpMfg2K95tXH5mqV2U-26" value="https://developer.mescius.com/document-solutions/dot-net-excel-api/docs/online/support-for-spreadjs-features.html" style="text;html=1;align=center;verticalAlign=middle;resizable=0;points=[];autosize=1;strokeColor=none;fillColor=none;" vertex="1" parent="1">
          <mxGeometry x="20" y="900" width="630" height="30" as="geometry" />
        </mxCell>
        <mxCell id="_RSpMfg2K95tXH5mqV2U-28" value="spread js build&amp;nbsp;workbook&lt;br&gt;&amp;nbsp;" style="text;html=1;align=center;verticalAlign=middle;resizable=0;points=[];autosize=1;strokeColor=none;fillColor=none;" vertex="1" parent="1">
          <mxGeometry x="490" y="450" width="160" height="40" as="geometry" />
        </mxCell>
        <mxCell id="_RSpMfg2K95tXH5mqV2U-36" value="" style="edgeStyle=orthogonalEdgeStyle;rounded=0;orthogonalLoop=1;jettySize=auto;html=1;" edge="1" parent="1" source="_RSpMfg2K95tXH5mqV2U-30" target="_RSpMfg2K95tXH5mqV2U-35">
          <mxGeometry relative="1" as="geometry">
            <Array as="points">
              <mxPoint x="390" y="670" />
              <mxPoint x="390" y="670" />
            </Array>
          </mxGeometry>
        </mxCell>
        <mxCell id="_RSpMfg2K95tXH5mqV2U-30" value="-&amp;nbsp;Sắp xếp, group by dữ liệu theo điều kiện động &lt;br&gt;(VD :&amp;nbsp;var groupedData = GroupDataByDynamicProperties(data, &quot; [{Key: &quot;PCK&quot; , Condition: &quot;=&quot; , Value:&quot;100&quot;, Formula:&#39;&#39; &quot;}]&quot;);&amp;nbsp;&lt;br&gt; Lấy các thuộc tính tương ứng với tên Column field, group by theo thuộc tính động. Hàm lọc điều kiện, set value theo formula" style="whiteSpace=wrap;html=1;rounded=0;" vertex="1" parent="1">
          <mxGeometry x="90" y="590" width="690" height="70" as="geometry" />
        </mxCell>
        <mxCell id="_RSpMfg2K95tXH5mqV2U-33" value="&lt;div style=&quot;text-align: center;&quot;&gt;&lt;span style=&quot;background-color: initial;&quot;&gt;Data dự toán&lt;/span&gt;&lt;/div&gt;" style="text;whiteSpace=wrap;html=1;" vertex="1" parent="1">
          <mxGeometry x="30" y="420" width="10" height="40" as="geometry" />
        </mxCell>
        <mxCell id="_RSpMfg2K95tXH5mqV2U-47" style="edgeStyle=orthogonalEdgeStyle;rounded=0;orthogonalLoop=1;jettySize=auto;html=1;exitX=1;exitY=0.5;exitDx=0;exitDy=0;" edge="1" parent="1" source="_RSpMfg2K95tXH5mqV2U-35" target="_RSpMfg2K95tXH5mqV2U-45">
          <mxGeometry relative="1" as="geometry" />
        </mxCell>
        <mxCell id="_RSpMfg2K95tXH5mqV2U-35" value="-&amp;nbsp; Duyệt qua từng nhóm để xử lý dữ liệu&lt;br&gt;-&amp;nbsp;Duyệt qua từng phần tử trong nhóm&amp;nbsp;" style="whiteSpace=wrap;html=1;rounded=0;" vertex="1" parent="1">
          <mxGeometry x="280" y="750" width="250" height="60" as="geometry" />
        </mxCell>
        <mxCell id="_RSpMfg2K95tXH5mqV2U-38" value="GrapeCity&amp;nbsp; build&amp;nbsp;workbook" style="text;html=1;strokeColor=none;fillColor=none;align=center;verticalAlign=middle;whiteSpace=wrap;rounded=0;" vertex="1" parent="1">
          <mxGeometry x="550" y="740" width="110" height="30" as="geometry" />
        </mxCell>
        <mxCell id="_RSpMfg2K95tXH5mqV2U-39" value="Xử lý dữ liệu dòng cho đúng điều kiện" style="text;html=1;strokeColor=none;fillColor=none;align=center;verticalAlign=middle;whiteSpace=wrap;rounded=0;" vertex="1" parent="1">
          <mxGeometry x="390" y="690" width="160" height="30" as="geometry" />
        </mxCell>
        <UserObject label="https://www.nuget.org/packages/GrapeCity.Documents.Excel" link="https://www.nuget.org/packages/GrapeCity.Documents.Excel" id="_RSpMfg2K95tXH5mqV2U-43">
          <mxCell style="text;whiteSpace=wrap;" vertex="1" parent="1">
            <mxGeometry x="30" y="920" width="360" height="40" as="geometry" />
          </mxCell>
        </UserObject>
        <mxCell id="_RSpMfg2K95tXH5mqV2U-45" value="Mẫu IN" style="shape=note;whiteSpace=wrap;html=1;backgroundOutline=1;darkOpacity=0.05;" vertex="1" parent="1">
          <mxGeometry x="700" y="730" width="80" height="100" as="geometry" />
        </mxCell>
        <mxCell id="_RSpMfg2K95tXH5mqV2U-48" value="Preview mẫu" style="shape=note;whiteSpace=wrap;html=1;backgroundOutline=1;darkOpacity=0.05;" vertex="1" parent="1">
          <mxGeometry x="690" y="440" width="80" height="100" as="geometry" />
        </mxCell>
        <mxCell id="_RSpMfg2K95tXH5mqV2U-50" style="edgeStyle=orthogonalEdgeStyle;rounded=0;orthogonalLoop=1;jettySize=auto;html=1;exitX=1;exitY=0.5;exitDx=0;exitDy=0;entryX=0;entryY=0.5;entryDx=0;entryDy=0;entryPerimeter=0;" edge="1" parent="1" source="_RSpMfg2K95tXH5mqV2U-9" target="_RSpMfg2K95tXH5mqV2U-48">
          <mxGeometry relative="1" as="geometry" />
        </mxCell>
        <mxCell id="_RSpMfg2K95tXH5mqV2U-51" value="In mẫu thuyết minh" style="text;html=1;strokeColor=none;fillColor=none;align=center;verticalAlign=middle;whiteSpace=wrap;rounded=0;" vertex="1" parent="1">
          <mxGeometry x="390" y="540" width="145" height="30" as="geometry" />
        </mxCell>
      </root>
    </mxGraphModel>
  </diagram>
</mxfile>
